<mxfile host="app.diagrams.net" modified="2022-07-13T23:18:36.101Z" agent="5.0 (X11; Linux x86_64) AppleWebKit/537.36 (KHTML, like Gecko) Chrome/103.0.5060.53 Safari/537.36" etag="T5BLgE3I4LXtRt60_2pr" version="20.0.4" type="github">
  <diagram id="xt20whMhf_NjTj70WU7w" name="Page-1">
    <mxGraphModel dx="703" dy="416" grid="1" gridSize="10" guides="1" tooltips="1" connect="1" arrows="1" fold="1" page="1" pageScale="1" pageWidth="850" pageHeight="1100" math="1" shadow="0">
      <root>
        <mxCell id="0" />
        <mxCell id="1" parent="0" />
        <mxCell id="fGEyC37GvmBnIuRNzFVT-27" style="edgeStyle=orthogonalEdgeStyle;rounded=0;orthogonalLoop=1;jettySize=auto;html=1;exitX=0.5;exitY=1;exitDx=0;exitDy=0;entryX=0.5;entryY=0;entryDx=0;entryDy=0;fontFamily=Times New Roman;fontSize=13;" edge="1" parent="1" source="yRPwk0sbZRX80ZsVxpsy-5">
          <mxGeometry relative="1" as="geometry">
            <mxPoint x="197.75" y="407" as="targetPoint" />
          </mxGeometry>
        </mxCell>
        <mxCell id="yRPwk0sbZRX80ZsVxpsy-5" value="Light curve" style="rounded=0;whiteSpace=wrap;html=1;fontFamily=Times New Roman;strokeWidth=2;fontSize=13;" parent="1" vertex="1">
          <mxGeometry x="157.75" y="305" width="80" height="20" as="geometry" />
        </mxCell>
        <mxCell id="yRPwk0sbZRX80ZsVxpsy-12" value="&lt;font style=&quot;font-size: 13px;&quot;&gt;Feed-Forward&amp;nbsp;(1024)&lt;/font&gt;" style="rounded=1;whiteSpace=wrap;html=1;strokeWidth=2;fontSize=13;fontFamily=Times New Roman;" parent="1" vertex="1">
          <mxGeometry x="441.25" y="407" width="115" height="30" as="geometry" />
        </mxCell>
        <mxCell id="yRPwk0sbZRX80ZsVxpsy-13" value="&lt;font style=&quot;font-size: 13px;&quot;&gt;Feed-Forward&amp;nbsp;(512)&lt;/font&gt;" style="rounded=1;whiteSpace=wrap;html=1;strokeWidth=2;fontSize=13;fontFamily=Times New Roman;" parent="1" vertex="1">
          <mxGeometry x="442.5" y="450" width="115" height="30" as="geometry" />
        </mxCell>
        <mxCell id="yRPwk0sbZRX80ZsVxpsy-14" value="&lt;font style=&quot;font-size: 13px;&quot;&gt;Feed-Forward&amp;nbsp;(256)&lt;/font&gt;" style="rounded=1;whiteSpace=wrap;html=1;strokeWidth=2;fontSize=13;fontFamily=Times New Roman;" parent="1" vertex="1">
          <mxGeometry x="442.5" y="490" width="115" height="30" as="geometry" />
        </mxCell>
        <mxCell id="yRPwk0sbZRX80ZsVxpsy-21" value="" style="endArrow=none;html=1;rounded=0;fontFamily=Times New Roman;strokeWidth=2;fontSize=14;" parent="1" edge="1">
          <mxGeometry width="50" height="50" relative="1" as="geometry">
            <mxPoint x="267" y="580" as="sourcePoint" />
            <mxPoint x="267" y="290" as="targetPoint" />
          </mxGeometry>
        </mxCell>
        <mxCell id="yRPwk0sbZRX80ZsVxpsy-22" value="" style="endArrow=none;html=1;rounded=0;fontFamily=Times New Roman;strokeWidth=2;fontSize=14;" parent="1" edge="1">
          <mxGeometry width="50" height="50" relative="1" as="geometry">
            <mxPoint x="414" y="580" as="sourcePoint" />
            <mxPoint x="414" y="290" as="targetPoint" />
          </mxGeometry>
        </mxCell>
        <mxCell id="yRPwk0sbZRX80ZsVxpsy-33" value="" style="triangle;whiteSpace=wrap;html=1;fontFamily=Times New Roman;fontSize=13;strokeWidth=2;" parent="1" vertex="1">
          <mxGeometry x="386.75" y="412" width="15" height="20" as="geometry" />
        </mxCell>
        <mxCell id="yRPwk0sbZRX80ZsVxpsy-37" value="" style="triangle;whiteSpace=wrap;html=1;fontFamily=Times New Roman;fontSize=14;strokeWidth=2;" parent="1" vertex="1">
          <mxGeometry x="180" y="596" width="5" height="10" as="geometry" />
        </mxCell>
        <mxCell id="yRPwk0sbZRX80ZsVxpsy-38" value=": Dropout of 0.3&amp;nbsp;" style="text;html=1;strokeColor=none;fillColor=none;align=center;verticalAlign=middle;whiteSpace=wrap;rounded=0;fontFamily=Times New Roman;fontSize=15;" parent="1" vertex="1">
          <mxGeometry x="185" y="584" width="125" height="30" as="geometry" />
        </mxCell>
        <mxCell id="yRPwk0sbZRX80ZsVxpsy-43" value="" style="endArrow=none;dashed=1;html=1;dashPattern=1 3;strokeWidth=2;rounded=0;fontFamily=Times New Roman;fontSize=13;" parent="1" edge="1">
          <mxGeometry width="50" height="50" relative="1" as="geometry">
            <mxPoint x="162.75" y="504.75" as="sourcePoint" />
            <mxPoint x="232.75" y="504.75" as="targetPoint" />
          </mxGeometry>
        </mxCell>
        <mxCell id="yRPwk0sbZRX80ZsVxpsy-44" value="" style="endArrow=none;dashed=1;html=1;dashPattern=1 3;strokeWidth=2;rounded=0;fontFamily=Times New Roman;fontSize=13;" parent="1" edge="1">
          <mxGeometry width="50" height="50" relative="1" as="geometry">
            <mxPoint x="162.75" y="450" as="sourcePoint" />
            <mxPoint x="232.75" y="450" as="targetPoint" />
          </mxGeometry>
        </mxCell>
        <mxCell id="yRPwk0sbZRX80ZsVxpsy-45" value="" style="endArrow=none;dashed=1;html=1;dashPattern=1 3;strokeWidth=2;rounded=0;fontFamily=Times New Roman;fontSize=13;" parent="1" edge="1">
          <mxGeometry width="50" height="50" relative="1" as="geometry">
            <mxPoint x="308.25" y="450" as="sourcePoint" />
            <mxPoint x="378.25" y="450" as="targetPoint" />
          </mxGeometry>
        </mxCell>
        <mxCell id="yRPwk0sbZRX80ZsVxpsy-46" value="" style="endArrow=none;dashed=1;html=1;dashPattern=1 3;strokeWidth=2;rounded=0;fontFamily=Times New Roman;fontSize=13;" parent="1" edge="1">
          <mxGeometry width="50" height="50" relative="1" as="geometry">
            <mxPoint x="310" y="504.5" as="sourcePoint" />
            <mxPoint x="380" y="504.5" as="targetPoint" />
          </mxGeometry>
        </mxCell>
        <mxCell id="yRPwk0sbZRX80ZsVxpsy-47" value="" style="endArrow=none;dashed=1;html=1;dashPattern=1 3;strokeWidth=2;rounded=0;fontFamily=Times New Roman;fontSize=13;" parent="1" edge="1">
          <mxGeometry width="50" height="50" relative="1" as="geometry">
            <mxPoint x="450.25" y="532" as="sourcePoint" />
            <mxPoint x="547.75" y="532" as="targetPoint" />
          </mxGeometry>
        </mxCell>
        <mxCell id="yRPwk0sbZRX80ZsVxpsy-48" value="" style="endArrow=none;dashed=1;html=1;dashPattern=1 3;strokeWidth=2;rounded=0;fontFamily=Times New Roman;fontSize=14;" parent="1" edge="1">
          <mxGeometry width="50" height="50" relative="1" as="geometry">
            <mxPoint x="355" y="600.5" as="sourcePoint" />
            <mxPoint x="385" y="601" as="targetPoint" />
          </mxGeometry>
        </mxCell>
        <mxCell id="yRPwk0sbZRX80ZsVxpsy-49" value=": Batch normalization" style="text;html=1;strokeColor=none;fillColor=none;align=center;verticalAlign=middle;whiteSpace=wrap;rounded=0;fontFamily=Times New Roman;fontSize=15;" parent="1" vertex="1">
          <mxGeometry x="388" y="584" width="134.5" height="30" as="geometry" />
        </mxCell>
        <mxCell id="yRPwk0sbZRX80ZsVxpsy-51" value="&lt;b style=&quot;font-size: 16px;&quot;&gt;Baseline&lt;/b&gt;" style="text;html=1;strokeColor=none;fillColor=none;align=center;verticalAlign=middle;whiteSpace=wrap;rounded=0;fontFamily=Times New Roman;fontSize=16;" parent="1" vertex="1">
          <mxGeometry x="166" y="265" width="60" height="30" as="geometry" />
        </mxCell>
        <mxCell id="yRPwk0sbZRX80ZsVxpsy-52" value="&lt;b style=&quot;font-size: 16px;&quot;&gt;LSTM+ATT&lt;/b&gt;" style="text;html=1;strokeColor=none;fillColor=none;align=center;verticalAlign=middle;whiteSpace=wrap;rounded=0;fontFamily=Times New Roman;fontSize=16;" parent="1" vertex="1">
          <mxGeometry x="300.75" y="265" width="85" height="30" as="geometry" />
        </mxCell>
        <mxCell id="yRPwk0sbZRX80ZsVxpsy-53" value="&lt;b style=&quot;font-size: 16px;&quot;&gt;MLP+ATT&lt;/b&gt;" style="text;html=1;strokeColor=none;fillColor=none;align=center;verticalAlign=middle;whiteSpace=wrap;rounded=0;fontFamily=Times New Roman;fontSize=16;" parent="1" vertex="1">
          <mxGeometry x="456.25" y="265" width="85" height="30" as="geometry" />
        </mxCell>
        <mxCell id="fGEyC37GvmBnIuRNzFVT-28" style="edgeStyle=orthogonalEdgeStyle;rounded=0;orthogonalLoop=1;jettySize=auto;html=1;exitX=0.5;exitY=1;exitDx=0;exitDy=0;entryX=0.5;entryY=0;entryDx=0;entryDy=0;fontFamily=Times New Roman;fontSize=13;" edge="1" parent="1" source="yRPwk0sbZRX80ZsVxpsy-58" target="fGEyC37GvmBnIuRNzFVT-4">
          <mxGeometry relative="1" as="geometry" />
        </mxCell>
        <mxCell id="yRPwk0sbZRX80ZsVxpsy-58" value="Light curve" style="rounded=0;whiteSpace=wrap;html=1;fontFamily=Times New Roman;strokeWidth=2;fontSize=13;" parent="1" vertex="1">
          <mxGeometry x="303.25" y="305" width="80" height="20" as="geometry" />
        </mxCell>
        <mxCell id="yRPwk0sbZRX80ZsVxpsy-60" value="&lt;font style=&quot;font-size: 13px;&quot;&gt;LSTM&lt;br&gt;&amp;nbsp;&lt;/font&gt;" style="rounded=1;whiteSpace=wrap;html=1;strokeWidth=2;fontSize=13;fontFamily=Times New Roman;" parent="1" vertex="1">
          <mxGeometry x="301.5" y="407" width="83.5" height="30" as="geometry" />
        </mxCell>
        <mxCell id="yRPwk0sbZRX80ZsVxpsy-63" value="Feed-Forward" style="rounded=1;whiteSpace=wrap;html=1;strokeWidth=2;fontSize=13;fontFamily=Times New Roman;" parent="1" vertex="1">
          <mxGeometry x="442.5" y="540" width="112.5" height="30" as="geometry" />
        </mxCell>
        <mxCell id="fGEyC37GvmBnIuRNzFVT-33" style="edgeStyle=orthogonalEdgeStyle;rounded=0;orthogonalLoop=1;jettySize=auto;html=1;exitX=0.5;exitY=1;exitDx=0;exitDy=0;entryX=0.5;entryY=0;entryDx=0;entryDy=0;fontFamily=Times New Roman;fontSize=13;" edge="1" parent="1" source="yRPwk0sbZRX80ZsVxpsy-66" target="yRPwk0sbZRX80ZsVxpsy-12">
          <mxGeometry relative="1" as="geometry" />
        </mxCell>
        <mxCell id="yRPwk0sbZRX80ZsVxpsy-66" value="ASTROMER&lt;br&gt;&lt;font style=&quot;font-size: 13px;&quot;&gt;(&lt;span style=&quot;background-color: rgb(255, 255, 255); text-align: left;&quot;&gt;660,736&lt;/span&gt;&lt;span style=&quot;background-color: initial;&quot;&gt;)&lt;/span&gt;&lt;/font&gt;" style="shape=hexagon;perimeter=hexagonPerimeter2;whiteSpace=wrap;html=1;fixedSize=1;fontFamily=Times New Roman;size=10;strokeWidth=2;fontSize=13;" parent="1" vertex="1">
          <mxGeometry x="440" y="350" width="117.5" height="42" as="geometry" />
        </mxCell>
        <mxCell id="fGEyC37GvmBnIuRNzFVT-29" style="edgeStyle=orthogonalEdgeStyle;rounded=0;orthogonalLoop=1;jettySize=auto;html=1;exitX=0.5;exitY=1;exitDx=0;exitDy=0;entryX=0.5;entryY=0;entryDx=0;entryDy=0;fontFamily=Times New Roman;fontSize=13;" edge="1" parent="1" source="yRPwk0sbZRX80ZsVxpsy-67" target="yRPwk0sbZRX80ZsVxpsy-66">
          <mxGeometry relative="1" as="geometry" />
        </mxCell>
        <mxCell id="yRPwk0sbZRX80ZsVxpsy-67" value="Light curve" style="rounded=0;whiteSpace=wrap;html=1;fontFamily=Times New Roman;strokeWidth=2;fontSize=13;" parent="1" vertex="1">
          <mxGeometry x="458.75" y="305" width="80" height="20" as="geometry" />
        </mxCell>
        <mxCell id="fGEyC37GvmBnIuRNzFVT-30" style="edgeStyle=orthogonalEdgeStyle;rounded=0;orthogonalLoop=1;jettySize=auto;html=1;exitX=0.5;exitY=1;exitDx=0;exitDy=0;entryX=0.5;entryY=0;entryDx=0;entryDy=0;fontFamily=Times New Roman;fontSize=13;" edge="1" parent="1" source="fGEyC37GvmBnIuRNzFVT-4" target="yRPwk0sbZRX80ZsVxpsy-60">
          <mxGeometry relative="1" as="geometry" />
        </mxCell>
        <mxCell id="fGEyC37GvmBnIuRNzFVT-4" value="ASTROMER&lt;br&gt;&lt;font style=&quot;font-size: 13px;&quot;&gt;(&lt;span style=&quot;background-color: rgb(255, 255, 255); text-align: left;&quot;&gt;660,736&lt;/span&gt;&lt;span style=&quot;background-color: initial;&quot;&gt;)&lt;/span&gt;&lt;/font&gt;" style="shape=hexagon;perimeter=hexagonPerimeter2;whiteSpace=wrap;html=1;fixedSize=1;fontFamily=Times New Roman;size=10;strokeWidth=2;fontSize=13;" vertex="1" parent="1">
          <mxGeometry x="286.25" y="350" width="117.5" height="42" as="geometry" />
        </mxCell>
        <mxCell id="fGEyC37GvmBnIuRNzFVT-11" value="Feed-Forward" style="rounded=1;whiteSpace=wrap;html=1;strokeWidth=2;fontSize=13;fontFamily=Times New Roman;" vertex="1" parent="1">
          <mxGeometry x="286.25" y="520" width="112.5" height="30" as="geometry" />
        </mxCell>
        <mxCell id="fGEyC37GvmBnIuRNzFVT-26" value="Feed-Forward" style="rounded=1;whiteSpace=wrap;html=1;strokeWidth=2;fontSize=13;fontFamily=Times New Roman;" vertex="1" parent="1">
          <mxGeometry x="143.75" y="520" width="112.5" height="30" as="geometry" />
        </mxCell>
        <mxCell id="fGEyC37GvmBnIuRNzFVT-34" value="" style="endArrow=none;html=1;rounded=0;fontFamily=Times New Roman;strokeWidth=2;fontSize=14;" edge="1" parent="1">
          <mxGeometry width="50" height="50" relative="1" as="geometry">
            <mxPoint x="140" y="291" as="sourcePoint" />
            <mxPoint x="560.63" y="290.5" as="targetPoint" />
          </mxGeometry>
        </mxCell>
        <mxCell id="fGEyC37GvmBnIuRNzFVT-35" value="" style="endArrow=none;html=1;rounded=0;fontFamily=Times New Roman;strokeWidth=2;fontSize=14;" edge="1" parent="1">
          <mxGeometry width="50" height="50" relative="1" as="geometry">
            <mxPoint x="139.87" y="580.5" as="sourcePoint" />
            <mxPoint x="560.5000000000001" y="580" as="targetPoint" />
          </mxGeometry>
        </mxCell>
        <mxCell id="fGEyC37GvmBnIuRNzFVT-37" value="&lt;font style=&quot;font-size: 12px;&quot;&gt;$$(256\times 4)$$&lt;/font&gt;" style="text;html=1;strokeColor=none;fillColor=none;align=center;verticalAlign=middle;whiteSpace=wrap;rounded=0;fontFamily=Times New Roman;fontSize=13;" vertex="1" parent="1">
          <mxGeometry x="313.25" y="412" width="60" height="30" as="geometry" />
        </mxCell>
        <mxCell id="fGEyC37GvmBnIuRNzFVT-38" value="" style="triangle;whiteSpace=wrap;html=1;fontFamily=Times New Roman;fontSize=13;strokeWidth=2;" vertex="1" parent="1">
          <mxGeometry x="386.75" y="465" width="15" height="20" as="geometry" />
        </mxCell>
        <mxCell id="fGEyC37GvmBnIuRNzFVT-39" value="&lt;font style=&quot;font-size: 13px;&quot;&gt;LSTM&lt;br&gt;&amp;nbsp;&lt;/font&gt;" style="rounded=1;whiteSpace=wrap;html=1;strokeWidth=2;fontSize=13;fontFamily=Times New Roman;" vertex="1" parent="1">
          <mxGeometry x="301.5" y="460" width="83.5" height="30" as="geometry" />
        </mxCell>
        <mxCell id="fGEyC37GvmBnIuRNzFVT-40" value="&lt;font style=&quot;font-size: 12px;&quot;&gt;$$(256\times 4)$$&lt;/font&gt;" style="text;html=1;strokeColor=none;fillColor=none;align=center;verticalAlign=middle;whiteSpace=wrap;rounded=0;fontFamily=Times New Roman;fontSize=13;" vertex="1" parent="1">
          <mxGeometry x="313.25" y="465" width="60" height="30" as="geometry" />
        </mxCell>
        <mxCell id="fGEyC37GvmBnIuRNzFVT-43" value="" style="triangle;whiteSpace=wrap;html=1;fontFamily=Times New Roman;fontSize=13;strokeWidth=2;" vertex="1" parent="1">
          <mxGeometry x="243" y="412" width="15" height="20" as="geometry" />
        </mxCell>
        <mxCell id="fGEyC37GvmBnIuRNzFVT-44" value="&lt;font style=&quot;font-size: 13px;&quot;&gt;LSTM&lt;br&gt;&amp;nbsp;&lt;/font&gt;" style="rounded=1;whiteSpace=wrap;html=1;strokeWidth=2;fontSize=13;fontFamily=Times New Roman;" vertex="1" parent="1">
          <mxGeometry x="157.75" y="407" width="83.5" height="30" as="geometry" />
        </mxCell>
        <mxCell id="fGEyC37GvmBnIuRNzFVT-45" value="&lt;font style=&quot;font-size: 12px;&quot;&gt;$$(256\times 4)$$&lt;/font&gt;" style="text;html=1;strokeColor=none;fillColor=none;align=center;verticalAlign=middle;whiteSpace=wrap;rounded=0;fontFamily=Times New Roman;fontSize=13;" vertex="1" parent="1">
          <mxGeometry x="169.5" y="412" width="60" height="30" as="geometry" />
        </mxCell>
        <mxCell id="fGEyC37GvmBnIuRNzFVT-46" value="" style="triangle;whiteSpace=wrap;html=1;fontFamily=Times New Roman;fontSize=13;strokeWidth=2;" vertex="1" parent="1">
          <mxGeometry x="243" y="465" width="15" height="20" as="geometry" />
        </mxCell>
        <mxCell id="fGEyC37GvmBnIuRNzFVT-47" value="&lt;font style=&quot;font-size: 13px;&quot;&gt;LSTM&lt;br&gt;&amp;nbsp;&lt;/font&gt;" style="rounded=1;whiteSpace=wrap;html=1;strokeWidth=2;fontSize=13;fontFamily=Times New Roman;" vertex="1" parent="1">
          <mxGeometry x="157.75" y="460" width="83.5" height="30" as="geometry" />
        </mxCell>
        <mxCell id="fGEyC37GvmBnIuRNzFVT-48" value="&lt;font style=&quot;font-size: 12px;&quot;&gt;$$(256\times 4)$$&lt;/font&gt;" style="text;html=1;strokeColor=none;fillColor=none;align=center;verticalAlign=middle;whiteSpace=wrap;rounded=0;fontFamily=Times New Roman;fontSize=13;" vertex="1" parent="1">
          <mxGeometry x="169.5" y="465" width="60" height="30" as="geometry" />
        </mxCell>
      </root>
    </mxGraphModel>
  </diagram>
</mxfile>
